<?xml version="1.0" encoding="UTF-8"?>
<!-- Generated by Pixelmator Pro 2.3.8 -->
<svg width="128" height="64" viewBox="0 0 128 64" xmlns="http://www.w3.org/2000/svg" xmlns:xlink="http://www.w3.org/1999/xlink">
    <g id="BLUE">
        <g id="LEFT">
            <path id="Path" fill="#0a8dd7" fill-rule="evenodd" stroke="none" d="M 1 59 L 13 59 L 13 51 L 1 51 Z"/>
            <path id="path1" fill="#0a8dd7" fill-rule="evenodd" stroke="none" d="M 11 53 L 22 53 L 22 45 L 11 45 Z"/>
            <path id="path2" fill="#0a8dd7" fill-rule="evenodd" stroke="none" d="M 16 47 L 27 47 L 27 38 L 16 38 Z"/>
            <path id="Rectangle" fill="#0a8dd7" fill-rule="evenodd" stroke="none" d="M 26 53 L 32 53 L 32 45 L 26 45 Z"/>
            <path id="path3" fill="#0a8dd7" fill-rule="evenodd" stroke="none" d="M 16 40 L 32 40 L 32 33 L 16 33 Z"/>
            <path id="path4" fill="#0a8dd7" fill-rule="evenodd" stroke="none" d="M 26 34 L 32 34 L 32 25 L 26 25 Z"/>
            <path id="path5" fill="#0a8dd7" fill-rule="evenodd" stroke="none" d="M 20 15 L 32 15 L 32 6 L 20 6 Z"/>
            <path id="path6" fill="#0a8dd7" fill-rule="evenodd" stroke="none" d="M 1 40 L 16 40 L 16 19 L 1 19 Z"/>
            <path id="path7" fill="#0a8dd7" fill-rule="evenodd" stroke="none" d="M 6 26 L 32 26 L 32 12 L 6 12 Z"/>
        </g>
        <g id="RIGHT">
            <path id="path8" fill="#0a8dd7" fill-rule="evenodd" stroke="none" d="M 62 59 L 50 59 L 50 51 L 62 51 Z"/>
            <path id="path9" fill="#0a8dd7" fill-rule="evenodd" stroke="none" d="M 52 53 L 41 53 L 41 45 L 52 45 Z"/>
            <path id="path10" fill="#0a8dd7" fill-rule="evenodd" stroke="none" d="M 47 47 L 36 47 L 36 38 L 47 38 Z"/>
            <path id="path11" fill="#0a8dd7" fill-rule="evenodd" stroke="none" d="M 37 53 L 31 53 L 31 45 L 37 45 Z"/>
            <path id="path12" fill="#0a8dd7" fill-rule="evenodd" stroke="none" d="M 47 40 L 31 40 L 31 33 L 47 33 Z"/>
            <path id="path13" fill="#0a8dd7" fill-rule="evenodd" stroke="none" d="M 37 34 L 31 34 L 31 25 L 37 25 Z"/>
            <path id="path14" fill="#0a8dd7" fill-rule="evenodd" stroke="none" d="M 43 15 L 31 15 L 31 6 L 43 6 Z"/>
            <path id="path15" fill="#0a8dd7" fill-rule="evenodd" stroke="none" d="M 62 40 L 47 40 L 47 19 L 62 19 Z"/>
            <path id="path16" fill="#0a8dd7" fill-rule="evenodd" stroke="none" d="M 57 26 L 31 26 L 31 12 L 57 12 Z"/>
        </g>
    </g>
    <g id="g1">
        <g id="g2">
            <path id="path17" fill="#0a8dd7" fill-rule="evenodd" stroke="none" d="M 77 59 L 89 59 L 89 53 L 77 53 Z"/>
            <path id="path18" fill="#0a8dd7" fill-rule="evenodd" stroke="none" d="M 75 53 L 86 53 L 86 45 L 75 45 Z"/>
            <path id="path19" fill="#0a8dd7" fill-rule="evenodd" stroke="none" d="M 80 47 L 91 47 L 91 38 L 80 38 Z"/>
            <path id="path20" fill="#0a8dd7" fill-rule="evenodd" stroke="none" d="M 90 53 L 96 53 L 96 45 L 90 45 Z"/>
            <path id="path21" fill="#0a8dd7" fill-rule="evenodd" stroke="none" d="M 80 40 L 96 40 L 96 33 L 80 33 Z"/>
            <path id="path22" fill="#0a8dd7" fill-rule="evenodd" stroke="none" d="M 90 34 L 96 34 L 96 25 L 90 25 Z"/>
            <path id="path23" fill="#0a8dd7" fill-rule="evenodd" stroke="none" d="M 84 15 L 96 15 L 96 6 L 84 6 Z"/>
            <path id="path24" fill="#0a8dd7" fill-rule="evenodd" stroke="none" d="M 65 40 L 80 40 L 80 19 L 65 19 Z"/>
            <path id="path25" fill="#0a8dd7" fill-rule="evenodd" stroke="none" d="M 70 26 L 96 26 L 96 12 L 70 12 Z"/>
        </g>
        <g id="g3">
            <path id="path26" fill="#0a8dd7" fill-rule="evenodd" stroke="none" d="M 114 59 L 102 59 L 102 53 L 114 53 Z"/>
            <path id="path27" fill="#0a8dd7" fill-rule="evenodd" stroke="none" d="M 116 53 L 105 53 L 105 45 L 116 45 Z"/>
            <path id="path28" fill="#0a8dd7" fill-rule="evenodd" stroke="none" d="M 111 47 L 100 47 L 100 38 L 111 38 Z"/>
            <path id="path29" fill="#0a8dd7" fill-rule="evenodd" stroke="none" d="M 101 53 L 95 53 L 95 45 L 101 45 Z"/>
            <path id="path30" fill="#0a8dd7" fill-rule="evenodd" stroke="none" d="M 111 40 L 95 40 L 95 33 L 111 33 Z"/>
            <path id="path31" fill="#0a8dd7" fill-rule="evenodd" stroke="none" d="M 101 34 L 95 34 L 95 25 L 101 25 Z"/>
            <path id="path32" fill="#0a8dd7" fill-rule="evenodd" stroke="none" d="M 107 15 L 95 15 L 95 6 L 107 6 Z"/>
            <path id="path33" fill="#0a8dd7" fill-rule="evenodd" stroke="none" d="M 126 40 L 111 40 L 111 19 L 126 19 Z"/>
            <path id="path34" fill="#0a8dd7" fill-rule="evenodd" stroke="none" d="M 121 26 L 95 26 L 95 12 L 121 12 Z"/>
        </g>
    </g>
</svg>
