<?xml version="1.0" encoding="UTF-8"?>
<!-- Generated by Pixelmator Pro 2.3.8 -->
<svg width="64" height="64" viewBox="0 0 64 64" xmlns="http://www.w3.org/2000/svg" xmlns:xlink="http://www.w3.org/1999/xlink">
    <g id="BLUE-copy">
        <g id="LEFT">
            <path id="Path" fill="#0a8dd7" fill-rule="evenodd" stroke="none" d="M 1 59 L 13 59 L 13 51 L 1 51 Z"/>
            <path id="path1" fill="#0a8dd7" fill-rule="evenodd" stroke="none" d="M 11 53 L 22 53 L 22 45 L 11 45 Z"/>
            <path id="path2" fill="#0a8dd7" fill-rule="evenodd" stroke="none" d="M 16 47 L 27 47 L 27 38 L 16 38 Z"/>
            <path id="Rectangle" fill="#0a8dd7" fill-rule="evenodd" stroke="none" d="M 26 53 L 32 53 L 32 45 L 26 45 Z"/>
            <path id="path3" fill="#0a8dd7" fill-rule="evenodd" stroke="none" d="M 16 40 L 32 40 L 32 33 L 16 33 Z"/>
            <path id="path4" fill="#0a8dd7" fill-rule="evenodd" stroke="none" d="M 26 34 L 32 34 L 32 25 L 26 25 Z"/>
            <path id="path5" fill="#0a8dd7" fill-rule="evenodd" stroke="none" d="M 20 15 L 32 15 L 32 6 L 20 6 Z"/>
            <path id="path6" fill="#0a8dd7" fill-rule="evenodd" stroke="none" d="M 1 40 L 16 40 L 16 19 L 1 19 Z"/>
            <path id="path7" fill="#0a8dd7" fill-rule="evenodd" stroke="none" d="M 6 26 L 32 26 L 32 12 L 6 12 Z"/>
        </g>
        <g id="RIGHT">
            <path id="path8" fill="#0a8dd7" fill-rule="evenodd" stroke="none" d="M 62 59 L 50 59 L 50 51 L 62 51 Z"/>
            <path id="path9" fill="#0a8dd7" fill-rule="evenodd" stroke="none" d="M 52 53 L 41 53 L 41 45 L 52 45 Z"/>
            <path id="path10" fill="#0a8dd7" fill-rule="evenodd" stroke="none" d="M 47 47 L 36 47 L 36 38 L 47 38 Z"/>
            <path id="path11" fill="#0a8dd7" fill-rule="evenodd" stroke="none" d="M 37 53 L 31 53 L 31 45 L 37 45 Z"/>
            <path id="path12" fill="#0a8dd7" fill-rule="evenodd" stroke="none" d="M 47 40 L 31 40 L 31 33 L 47 33 Z"/>
            <path id="path13" fill="#0a8dd7" fill-rule="evenodd" stroke="none" d="M 37 34 L 31 34 L 31 25 L 37 25 Z"/>
            <path id="path14" fill="#0a8dd7" fill-rule="evenodd" stroke="none" d="M 43 15 L 31 15 L 31 6 L 43 6 Z"/>
            <path id="path15" fill="#0a8dd7" fill-rule="evenodd" stroke="none" d="M 62 40 L 47 40 L 47 19 L 62 19 Z"/>
            <path id="path16" fill="#0a8dd7" fill-rule="evenodd" stroke="none" d="M 57 26 L 31 26 L 31 12 L 57 12 Z"/>
        </g>
    </g>
</svg>
