<?xml version="1.0" encoding="UTF-8"?>
<!-- Generated by Pixelmator Pro 2.3.8 -->
<svg width="114" height="57" viewBox="0 0 114 57" xmlns="http://www.w3.org/2000/svg" xmlns:xlink="http://www.w3.org/1999/xlink">
    <g id="ORANGE-copy">
        <g id="LEFT">
            <path id="Rectangle" fill="#fe7700" fill-rule="evenodd" stroke="none" d="M 58 55 L 66 55 L 66 47 L 58 47 Z"/>
            <path id="path1" fill="#fe7700" fill-rule="evenodd" stroke="none" d="M 64 48 L 72 48 L 72 40 L 64 40 Z"/>
            <path id="path2" fill="#fe7700" fill-rule="evenodd" stroke="none" d="M 71 55 L 79 55 L 79 47 L 71 47 Z"/>
            <path id="Path" fill="#fe7700" fill-rule="evenodd" stroke="none" d="M 78 48 L 86 48 L 86 40 L 78 40 Z"/>
            <path id="path3" fill="#fe7700" fill-rule="evenodd" stroke="none" d="M 78 28 L 86 28 L 86 20 L 78 20 Z"/>
            <path id="path4" fill="#fe7700" fill-rule="evenodd" stroke="none" d="M 71 41 L 79 41 L 79 33 L 71 33 Z"/>
            <path id="path5" fill="#fe7700" fill-rule="evenodd" stroke="none" d="M 58 35 L 86 35 L 86 27 L 58 27 Z"/>
            <path id="path6" fill="#fe7700" fill-rule="evenodd" stroke="none" d="M 58 28 L 71 28 L 71 20 L 58 20 Z"/>
            <path id="path7" fill="#fe7700" fill-rule="evenodd" stroke="none" d="M 64 20 L 86 20 L 86 13 L 64 13 Z"/>
            <path id="path8" fill="#fe7700" fill-rule="evenodd" stroke="none" d="M 71 13 L 86 13 L 86 6 L 71 6 Z"/>
            <path id="path9" fill="#fe7700" fill-rule="evenodd" stroke="none" d="M 79 10 L 86 10 L 86 3 L 79 3 Z"/>
        </g>
        <g id="RIGHT">
            <path id="path10" fill="#fe7700" fill-rule="evenodd" stroke="none" d="M 113 55 L 105 55 L 105 47 L 113 47 Z"/>
            <path id="path11" fill="#fe7700" fill-rule="evenodd" stroke="none" d="M 107 48 L 99 48 L 99 40 L 107 40 Z"/>
            <path id="path12" fill="#fe7700" fill-rule="evenodd" stroke="none" d="M 100 55 L 92 55 L 92 47 L 100 47 Z"/>
            <path id="path13" fill="#fe7700" fill-rule="evenodd" stroke="none" d="M 93 48 L 85 48 L 85 40 L 93 40 Z"/>
            <path id="path14" fill="#fe7700" fill-rule="evenodd" stroke="none" d="M 93 28 L 85 28 L 85 20 L 93 20 Z"/>
            <path id="path15" fill="#fe7700" fill-rule="evenodd" stroke="none" d="M 100 41 L 92 41 L 92 33 L 100 33 Z"/>
            <path id="path16" fill="#fe7700" fill-rule="evenodd" stroke="none" d="M 113 35 L 85 35 L 85 27 L 113 27 Z"/>
            <path id="path17" fill="#fe7700" fill-rule="evenodd" stroke="none" d="M 113 28 L 100 28 L 100 20 L 113 20 Z"/>
            <path id="path18" fill="#fe7700" fill-rule="evenodd" stroke="none" d="M 107 20 L 85 20 L 85 13 L 107 13 Z"/>
            <path id="path19" fill="#fe7700" fill-rule="evenodd" stroke="none" d="M 100 13 L 85 13 L 85 6 L 100 6 Z"/>
            <path id="path20" fill="#fe7700" fill-rule="evenodd" stroke="none" d="M 92 10 L 85 10 L 85 3 L 92 3 Z"/>
        </g>
    </g>
    <g id="ORANGE-copy-1">
        <g id="g1">
            <path id="path21" fill="#fe7700" fill-rule="evenodd" stroke="none" d="M 7 55 L 15 55 L 15 47 L 7 47 Z"/>
            <path id="path22" fill="#fe7700" fill-rule="evenodd" stroke="none" d="M 1 48 L 9 48 L 9 40 L 1 40 Z"/>
            <path id="path23" fill="#fe7700" fill-rule="evenodd" stroke="none" d="M 21 28 L 29 28 L 29 20 L 21 20 Z"/>
            <path id="path24" fill="#fe7700" fill-rule="evenodd" stroke="none" d="M 7 41 L 15 41 L 15 33 L 7 33 Z"/>
            <path id="Rectangle-copy" fill="#fe7700" fill-rule="evenodd" stroke="none" d="M 21 41 L 37 41 L 37 33 L 21 33 Z"/>
            <path id="path25" fill="#fe7700" fill-rule="evenodd" stroke="none" d="M 1 35 L 29 35 L 29 27 L 1 27 Z"/>
            <path id="path26" fill="#fe7700" fill-rule="evenodd" stroke="none" d="M 1 28 L 14 28 L 14 20 L 1 20 Z"/>
            <path id="path27" fill="#fe7700" fill-rule="evenodd" stroke="none" d="M 7 20 L 29 20 L 29 13 L 7 13 Z"/>
            <path id="path28" fill="#fe7700" fill-rule="evenodd" stroke="none" d="M 14 13 L 29 13 L 29 6 L 14 6 Z"/>
            <path id="path29" fill="#fe7700" fill-rule="evenodd" stroke="none" d="M 22 10 L 29 10 L 29 3 L 22 3 Z"/>
        </g>
        <g id="g2">
            <path id="path30" fill="#fe7700" fill-rule="evenodd" stroke="none" d="M 50 55 L 42 55 L 42 47 L 50 47 Z"/>
            <path id="path31" fill="#fe7700" fill-rule="evenodd" stroke="none" d="M 56 48 L 48 48 L 48 40 L 56 40 Z"/>
            <path id="path32" fill="#fe7700" fill-rule="evenodd" stroke="none" d="M 36 28 L 28 28 L 28 20 L 36 20 Z"/>
            <path id="path33" fill="#fe7700" fill-rule="evenodd" stroke="none" d="M 50 41 L 42 41 L 42 33 L 50 33 Z"/>
            <path id="path34" fill="#fe7700" fill-rule="evenodd" stroke="none" d="M 56 35 L 28 35 L 28 27 L 56 27 Z"/>
            <path id="path35" fill="#fe7700" fill-rule="evenodd" stroke="none" d="M 56 28 L 43 28 L 43 20 L 56 20 Z"/>
            <path id="path36" fill="#fe7700" fill-rule="evenodd" stroke="none" d="M 50 20 L 28 20 L 28 13 L 50 13 Z"/>
            <path id="path37" fill="#fe7700" fill-rule="evenodd" stroke="none" d="M 43 13 L 28 13 L 28 6 L 43 6 Z"/>
            <path id="path38" fill="#fe7700" fill-rule="evenodd" stroke="none" d="M 35 10 L 28 10 L 28 3 L 35 3 Z"/>
        </g>
    </g>
</svg>
