<?xml version="1.0" encoding="UTF-8"?>
<!-- Generated by Pixelmator Pro 2.3.8 -->
<svg width="58" height="58" viewBox="0 0 58 58" xmlns="http://www.w3.org/2000/svg" xmlns:xlink="http://www.w3.org/1999/xlink">
    <g id="Group">
        <path id="Rectangle-copy-18" fill="#ffffff" fill-rule="evenodd" stroke="none" d="M 13 42 L 21 42 L 21 34 L 13 34 Z"/>
        <path id="Rectangle-copy-20" fill="#ffffff" fill-rule="evenodd" stroke="none" d="M 5 42 L 13 42 L 13 34 L 5 34 Z"/>
        <path id="Rectangle-copy-22" fill="#ffffff" fill-rule="evenodd" stroke="none" d="M 5 50 L 13 50 L 13 42 L 5 42 Z"/>
        <path id="Rectangle-copy-19" fill="#ffffff" fill-rule="evenodd" stroke="none" d="M 37 42 L 45 42 L 45 34 L 37 34 Z"/>
        <path id="Rectangle-copy-21" fill="#ffffff" fill-rule="evenodd" stroke="none" d="M 45 42 L 53 42 L 53 34 L 45 34 Z"/>
        <path id="Rectangle-copy-23" fill="#ffffff" fill-rule="evenodd" stroke="none" d="M 45 50 L 53 50 L 53 42 L 45 42 Z"/>
        <path id="Rectangle-copy-10" fill="#ffffff" fill-rule="evenodd" stroke="none" d="M 21 34 L 29 34 L 29 26 L 21 26 Z"/>
        <path id="Rectangle-copy-16" fill="#ffffff" fill-rule="evenodd" stroke="none" d="M 13 34 L 21 34 L 21 26 L 13 26 Z"/>
        <path id="Rectangle-copy-9" fill="#ffffff" fill-rule="evenodd" stroke="none" d="M 29 34 L 37 34 L 37 26 L 29 26 Z"/>
        <path id="Rectangle-copy-17" fill="#ffffff" fill-rule="evenodd" stroke="none" d="M 37 34 L 45 34 L 45 26 L 37 26 Z"/>
        <path id="Rectangle-copy-12" fill="#ffffff" fill-rule="evenodd" stroke="none" d="M 21 26 L 29 26 L 29 18 L 21 18 Z"/>
        <path id="Rectangle-copy-11" fill="#ffffff" fill-rule="evenodd" stroke="none" d="M 29 26 L 37 26 L 37 18 L 29 18 Z"/>
        <path id="Rectangle-copy-14" fill="#ffffff" fill-rule="evenodd" stroke="none" d="M 25 18 L 33 18 L 33 10 L 25 10 Z"/>
        <path id="Rectangle-copy-15" fill="#ffffff" fill-rule="evenodd" stroke="none" d="M 28 10 L 30 10 L 30 8 L 28 8 Z"/>
    </g>
</svg>
