<?xml version="1.0" encoding="UTF-8"?>
<!-- Generated by Pixelmator Pro 2.3.8 -->
<svg width="148" height="72" viewBox="0 0 148 72" xmlns="http://www.w3.org/2000/svg" xmlns:xlink="http://www.w3.org/1999/xlink">
    <g id="YELLOW-copy">
        <g id="LEFT">
            <path id="Rectangle" fill="#fee100" fill-rule="evenodd" stroke="none" d="M 1 57 L 9 57 L 9 35 L 1 35 Z"/>
            <path id="path1" fill="#fee100" fill-rule="evenodd" stroke="none" d="M 7 44 L 14 44 L 14 29 L 7 29 Z"/>
            <path id="path2" fill="#fee100" fill-rule="evenodd" stroke="none" d="M 14 57 L 21 57 L 21 22 L 14 22 Z"/>
            <path id="path3" fill="#fee100" fill-rule="evenodd" stroke="none" d="M 20 29 L 29 29 L 29 16 L 20 16 Z"/>
            <path id="path4" fill="#fee100" fill-rule="evenodd" stroke="none" d="M 14 17 L 22 17 L 22 10 L 14 10 Z"/>
            <path id="path5" fill="#fee100" fill-rule="evenodd" stroke="none" d="M 20 63 L 34 63 L 34 55 L 20 55 Z"/>
            <path id="path6" fill="#fee100" fill-rule="evenodd" stroke="none" d="M 20 50 L 29 50 L 29 38 L 20 38 Z"/>
            <path id="path7" fill="#fee100" fill-rule="evenodd" stroke="none" d="M 29 50 L 37 50 L 37 22 L 29 22 Z"/>
        </g>
        <g id="RIGHT">
            <path id="path8" fill="#fee100" fill-rule="evenodd" stroke="none" d="M 73 57 L 65 57 L 65 35 L 73 35 Z"/>
            <path id="path9" fill="#fee100" fill-rule="evenodd" stroke="none" d="M 67 44 L 60 44 L 60 29 L 67 29 Z"/>
            <path id="path10" fill="#fee100" fill-rule="evenodd" stroke="none" d="M 60 57 L 53 57 L 53 22 L 60 22 Z"/>
            <path id="path11" fill="#fee100" fill-rule="evenodd" stroke="none" d="M 54 29 L 45 29 L 45 16 L 54 16 Z"/>
            <path id="path12" fill="#fee100" fill-rule="evenodd" stroke="none" d="M 60 17 L 52 17 L 52 10 L 60 10 Z"/>
            <path id="path13" fill="#fee100" fill-rule="evenodd" stroke="none" d="M 54 63 L 40 63 L 40 55 L 54 55 Z"/>
            <path id="path14" fill="#fee100" fill-rule="evenodd" stroke="none" d="M 54 50 L 45 50 L 45 38 L 54 38 Z"/>
            <path id="path15" fill="#fee100" fill-rule="evenodd" stroke="none" d="M 45 50 L 37 50 L 37 22 L 45 22 Z"/>
        </g>
    </g>
    <g id="YELLOW-copy-1">
        <g id="g1">
            <path id="path16" fill="#fee100" fill-rule="evenodd" stroke="none" d="M 75 37 L 83 37 L 83 15 L 75 15 Z"/>
            <path id="path17" fill="#fee100" fill-rule="evenodd" stroke="none" d="M 81 44 L 88 44 L 88 29 L 81 29 Z"/>
            <path id="path18" fill="#fee100" fill-rule="evenodd" stroke="none" d="M 88 57 L 95 57 L 95 22 L 88 22 Z"/>
            <path id="path19" fill="#fee100" fill-rule="evenodd" stroke="none" d="M 94 29 L 103 29 L 103 16 L 94 16 Z"/>
            <path id="path20" fill="#fee100" fill-rule="evenodd" stroke="none" d="M 88 17 L 96 17 L 96 10 L 88 10 Z"/>
            <path id="path21" fill="#fee100" fill-rule="evenodd" stroke="none" d="M 82 63 L 90 63 L 90 55 L 82 55 Z"/>
            <path id="path22" fill="#fee100" fill-rule="evenodd" stroke="none" d="M 94 50 L 103 50 L 103 38 L 94 38 Z"/>
            <path id="path23" fill="#fee100" fill-rule="evenodd" stroke="none" d="M 103 50 L 111 50 L 111 22 L 103 22 Z"/>
        </g>
        <g id="g2">
            <path id="path24" fill="#fee100" fill-rule="evenodd" stroke="none" d="M 147 37 L 139 37 L 139 15 L 147 15 Z"/>
            <path id="path25" fill="#fee100" fill-rule="evenodd" stroke="none" d="M 141 44 L 134 44 L 134 29 L 141 29 Z"/>
            <path id="path26" fill="#fee100" fill-rule="evenodd" stroke="none" d="M 134 57 L 127 57 L 127 22 L 134 22 Z"/>
            <path id="path27" fill="#fee100" fill-rule="evenodd" stroke="none" d="M 128 29 L 119 29 L 119 16 L 128 16 Z"/>
            <path id="path28" fill="#fee100" fill-rule="evenodd" stroke="none" d="M 134 17 L 126 17 L 126 10 L 134 10 Z"/>
            <path id="path29" fill="#fee100" fill-rule="evenodd" stroke="none" d="M 140 63 L 132 63 L 132 55 L 140 55 Z"/>
            <path id="path30" fill="#fee100" fill-rule="evenodd" stroke="none" d="M 128 50 L 119 50 L 119 38 L 128 38 Z"/>
            <path id="path31" fill="#fee100" fill-rule="evenodd" stroke="none" d="M 119 50 L 111 50 L 111 22 L 119 22 Z"/>
        </g>
    </g>
</svg>
